<svg xmlns="http://www.w3.org/2000/svg" width="1440" height="900" viewBox="0 0 1440 900" fill="none">
  <rect width="1440" height="900" fill="#EEEBE4"/>
  <rect x="16" y="16" width="320" height="868" rx="24" fill="#F7F4ED" stroke="#D1CABD"/>
  <rect x="352" y="16" width="1072" height="868" rx="24" fill="#F7F4ED" stroke="#D1CABD"/>
  <rect x="352" y="112" width="1072" height="1" fill="#D1CABD"/>

  <rect x="380" y="138" width="1036" height="520" rx="20" fill="#F9F7F1" stroke="#D1CABD"/>
  <rect x="400" y="164" width="280" height="12" rx="6" fill="#59554B" opacity="0.8"/>
  <rect x="400" y="192" width="500" height="22" rx="11" fill="#2B2923" opacity="0.92"/>
  <rect x="400" y="230" width="320" height="18" rx="9" fill="#2B2923" opacity="0.88"/>
  <circle cx="414" cy="271" r="5" fill="#2B2923"/>
  <rect x="430" y="264" width="540" height="14" rx="7" fill="#2B2923" opacity="0.86"/>
  <circle cx="414" cy="301" r="5" fill="#2B2923"/>
  <rect x="430" y="294" width="600" height="14" rx="7" fill="#2B2923" opacity="0.86"/>
  <circle cx="414" cy="331" r="5" fill="#2B2923"/>
  <rect x="430" y="324" width="660" height="14" rx="7" fill="#2B2923" opacity="0.86"/>

  <rect x="400" y="366" width="240" height="18" rx="9" fill="#2B2923" opacity="0.88"/>
  <rect x="400" y="398" width="880" height="14" rx="7" fill="#2B2923" opacity="0.83"/>
  <rect x="400" y="426" width="840" height="14" rx="7" fill="#2B2923" opacity="0.83"/>

  <rect x="400" y="464" width="14" height="70" rx="7" fill="#D4CCBD"/>
  <rect x="426" y="468" width="760" height="14" rx="7" fill="#5A564D" opacity="0.8"/>
  <rect x="426" y="494" width="700" height="14" rx="7" fill="#5A564D" opacity="0.8"/>

  <rect x="400" y="556" width="500" height="86" rx="12" fill="#F4EEE2" stroke="#D8CFBF"/>
  <rect x="418" y="578" width="260" height="12" rx="6" fill="#2B2923" opacity="0.85"/>
  <rect x="418" y="602" width="440" height="12" rx="6" fill="#2B2923" opacity="0.78"/>

  <rect x="352" y="700" width="1072" height="1" fill="#D1CABD"/>
  <rect x="372" y="720" width="1016" height="122" rx="16" fill="#FFFDF8" stroke="#C5BDAF"/>
  <rect x="1260" y="856" width="128" height="42" rx="12" fill="#1F7568"/>
</svg>
